<svg width="136" height="19" viewBox="0 0 136 19" fill="none" xmlns="http://www.w3.org/2000/svg">
<path fill-rule="evenodd" clip-rule="evenodd" d="M126.9 2.71875C121.985 2.71875 118 6.34524 118 10.8188C118 15.2923 121.985 18.9188 126.9 18.9188C131.816 18.9188 135.801 15.2923 135.801 10.8188C135.801 8.6705 134.863 6.61023 133.194 5.09119C131.525 3.57214 129.261 2.71875 126.9 2.71875ZM134.02 10.8188C133.001 10.5403 131.943 10.3984 130.879 10.3976C130.245 10.4053 129.614 10.4622 128.992 10.5677C128.769 10.0736 128.538 9.59572 128.289 9.11782C129.752 8.45224 131.087 7.57402 132.24 6.51768C133.396 7.70292 134.029 9.23452 134.02 10.8188ZM127.675 8.04859C128.995 7.44571 130.198 6.64941 131.235 5.69154C129.993 4.81832 128.47 4.34279 126.9 4.33887C126.324 4.34098 125.751 4.40625 125.192 4.53326C126.12 5.64359 126.95 6.81904 127.675 8.04859ZM123.892 4.95438C124.857 6.08675 125.717 7.28961 126.464 8.55072C124.901 9.10629 123.238 9.39461 121.56 9.40121C121.034 9.39598 120.508 9.36624 119.985 9.31211C120.491 7.39404 121.929 5.79004 123.892 4.95438ZM119.78 10.511V10.8188C119.784 12.4171 120.437 13.9576 121.613 15.1443C122.998 13.0946 125.156 11.5742 127.684 10.8674C127.497 10.4463 127.283 10.0413 127.069 9.6363L127.069 9.63628L127.069 9.63626L127.069 9.6362C125.318 10.2788 123.448 10.6115 121.56 10.6163C120.965 10.6144 120.37 10.5793 119.78 10.511ZM122.61 15.9784C123.831 14.0558 125.816 12.6324 128.155 12.0015C128.781 13.5752 129.225 15.2039 129.481 16.8613C127.181 17.685 124.574 17.3531 122.61 15.9865V15.9784ZM129.472 11.726C130.04 13.2037 130.463 14.7244 130.736 16.2701C132.37 15.3203 133.508 13.805 133.887 12.0743C132.917 11.7802 131.901 11.6298 130.878 11.6288C130.408 11.6327 129.938 11.6651 129.472 11.726Z" fill="#7B7B7B"/>
<path d="M51.796 5.06659C51.3103 5.72255 50.7232 6.29474 50.0574 6.76108C50.0574 6.93243 50.0574 7.10379 50.0574 7.28466C50.0628 10.3964 48.8352 13.3802 46.6498 15.5671C44.4644 17.7539 41.5042 18.961 38.4326 18.9176C36.6568 18.9236 34.9038 18.5131 33.3109 17.7182C33.225 17.6802 33.1696 17.5941 33.1699 17.4992V17.3945C33.1699 17.2578 33.2793 17.147 33.4142 17.147C35.1598 17.0887 36.843 16.476 38.2258 15.3954C36.6459 15.3632 35.2244 14.4155 34.5702 12.9583C34.5371 12.8788 34.5474 12.7875 34.5973 12.7175C34.6472 12.6475 34.7295 12.6089 34.8145 12.6156C35.2947 12.6645 35.7796 12.6193 36.2429 12.4824C34.4988 12.1158 33.1883 10.6497 33.0008 8.85539C32.9941 8.76932 33.0322 8.68594 33.1013 8.63539C33.1704 8.58483 33.2605 8.57441 33.3391 8.60788C33.8071 8.81699 34.3124 8.92713 34.8239 8.93155C33.2956 7.91594 32.6355 5.98421 33.2169 4.22886C33.2769 4.0583 33.4211 3.93229 33.5964 3.89715C33.7718 3.86202 33.9525 3.92293 34.0721 4.05751C36.1344 6.27984 38.968 7.60412 41.9755 7.75112C41.8984 7.43988 41.8606 7.12003 41.8627 6.79916C41.8908 5.11669 42.919 3.61791 44.4658 3.0045C46.0127 2.39109 47.7721 2.78443 48.9203 4.00039C49.703 3.84942 50.4597 3.58322 51.1664 3.21027C51.2181 3.17755 51.2838 3.17755 51.3355 3.21027C51.3678 3.2627 51.3678 3.32919 51.3355 3.38162C50.9933 4.17518 50.4151 4.84076 49.6815 5.28554C50.3239 5.21012 50.9549 5.05671 51.5611 4.8286C51.6121 4.79343 51.6792 4.79343 51.7302 4.8286C51.773 4.84841 51.8049 4.88628 51.8176 4.93214C51.8303 4.97799 51.8224 5.02718 51.796 5.06659Z" fill="#7B7B7B"/>
<path d="M8.44444 4.42656H5.77778C5.28686 4.42656 4.88889 4.82951 4.88889 5.32656V8.02656H8.44444C8.54554 8.02429 8.64142 8.07191 8.70153 8.15425C8.76164 8.23659 8.77847 8.34337 8.74666 8.44056L8.08889 10.4206C8.02827 10.6023 7.86055 10.7251 7.67111 10.7266H4.88889V17.4766C4.88889 17.7251 4.6899 17.9266 4.44444 17.9266H2.22222C1.97676 17.9266 1.77778 17.7251 1.77778 17.4766V10.7266H0.444444C0.198984 10.7266 0 10.5251 0 10.2766V8.47656C0 8.22803 0.198984 8.02656 0.444444 8.02656H1.77778V5.32656C1.77778 3.33834 3.36965 1.72656 5.33333 1.72656H8.44444C8.6899 1.72656 8.88889 1.92803 8.88889 2.17656V3.97656C8.88889 4.22509 8.6899 4.42656 8.44444 4.42656Z" fill="#7B7B7B"/>
<path fill-rule="evenodd" clip-rule="evenodd" d="M76 2.63245C76 1.57986 76.8954 0.726562 78 0.726562C78.5304 0.726562 79.0391 0.92736 79.4142 1.28478C79.7893 1.64221 80 2.12697 80 2.63245C80 3.68504 79.1046 4.53833 78 4.53833C76.8954 4.53833 76 3.68504 76 2.63245ZM93.5 10.6467C93.5345 8.58346 92.0574 6.77546 89.95 6.30126C88.5377 6.01147 87.0657 6.39147 86 7.32091V6.92067C86 6.65752 85.7761 6.4442 85.5 6.4442H83C82.7239 6.4442 82.5 6.65752 82.5 6.92067V16.4501C82.5 16.7132 82.7239 16.9266 83 16.9266H85.5C85.7761 16.9266 86 16.7132 86 16.4501V11.0755C85.9753 10.1185 86.6753 9.2827 87.66 9.09338C88.2464 8.99692 88.8473 9.15427 89.2997 9.52268C89.752 9.89109 90.0087 10.4323 90 10.9993V16.4501C90 16.7132 90.2239 16.9266 90.5 16.9266H93C93.2761 16.9266 93.5 16.7132 93.5 16.4501V10.6467ZM80 6.92066V16.4501C80 16.7132 79.7761 16.9266 79.5 16.9266H77C76.7239 16.9266 76.5 16.7132 76.5 16.4501V6.92066C76.5 6.65751 76.7239 6.44418 77 6.44418H79.5C79.7761 6.44418 80 6.65751 80 6.92066Z" fill="#7B7B7B"/>
</svg>
